<?xml version="1.0" encoding="utf-8"?>
<!-- Generator: Adobe Illustrator 23.0.1, SVG Export Plug-In . SVG Version: 6.00 Build 0)  -->
<svg version="1.1" id="Layer_1" xmlns="http://www.w3.org/2000/svg" xmlns:xlink="http://www.w3.org/1999/xlink" x="0px" y="0px"
	 viewBox="0 0 841.9 595.3" style="enable-background:new 0 0 841.9 595.3;" xml:space="preserve">
<style type="text/css">
	.st0{fill:#3F8ACA;}
</style>
<g>
	<path d="M110.5,322.4c-1.2,0-2.3-0.1-3.4-0.4c-1.1-0.2-2.2-0.6-3.2-1s-2-1-2.9-1.6s-1.8-1.3-2.5-2.1c-1.6-1.6-2.9-3.4-3.8-5.4
		c-0.9-2-1.3-4.2-1.3-6.6v-17.5c0-2.4,0.4-4.5,1.3-6.5s2.1-3.8,3.8-5.5c1.6-1.6,3.5-2.9,5.5-3.8c2-0.9,4.2-1.3,6.5-1.3h49v9.9h-49
		c-0.9,0-1.7,0.2-2.5,0.5c-0.8,0.3-1.4,0.8-2,1.3s-1,1.2-1.3,2c-0.3,0.8-0.5,1.6-0.5,2.5v19.3c0,0.8,0.2,1.6,0.5,2.4
		c0.4,0.8,0.8,1.4,1.4,2c0.6,0.6,1.3,1.1,2,1.4c0.8,0.4,1.5,0.5,2.4,0.5h38.3v-11.6l-6.8,0V291l11.6,0c0.9,0,1.7,0.1,2.4,0.4
		c0.7,0.3,1.4,0.7,1.9,1.2s0.9,1.1,1.2,1.9c0.3,0.7,0.4,1.5,0.4,2.4v19.5c0,0.9-0.1,1.7-0.4,2.4c-0.3,0.7-0.7,1.4-1.2,1.9
		c-0.5,0.5-1.1,0.9-1.9,1.2c-0.7,0.3-1.5,0.4-2.4,0.4H110.5z"/>
	<path d="M174,270.7h54.3c0.9,0,1.7,0.1,2.4,0.4c0.7,0.3,1.4,0.7,1.9,1.2s0.9,1.1,1.2,1.9c0.3,0.7,0.4,1.5,0.4,2.4v45.8h-10.8v-21.5
		h-44.5v21.5h-10.8v-45.8c0-0.9,0.1-1.7,0.4-2.4c0.3-0.7,0.7-1.4,1.2-1.9c0.5-0.5,1.1-0.9,1.9-1.2
		C172.3,270.8,173.1,270.7,174,270.7z M178.9,291h44.5v-10.5h-44.5V291z"/>
	<path d="M253.6,312.5H309v9.9h-60.2c-0.9,0-1.7-0.1-2.4-0.4s-1.4-0.7-1.9-1.2c-0.5-0.5-0.9-1.1-1.2-1.9c-0.3-0.7-0.4-1.5-0.4-2.4
		v-45.8h10.8V312.5z"/>
	<path d="M371,291v-10h-45l-0.1,10.4l30.1,0v9.9l-30-0.1V322h-10v-45.4c0-0.9,0.3-1.7,0.6-2.4c0.3-0.7,0.8-1.4,1.3-1.9
		c0.5-0.5,1.2-0.8,1.9-1c0.7-0.3,1.6-0.3,2.5-0.3h54.3c0.9,0,1.7,0,2.4,0.3c0.7,0.3,1.4,0.6,1.9,1.1s0.7,1.1,1,1.8
		c0.3,0.7,0.2,1.5,0.2,2.4V322h-11v-21.1V291"/>
	<path d="M396.1,275.8c1.6-1.6,3.5-2.9,5.5-3.8c2-0.9,4.2-1.3,6.5-1.3h49.3v9.9h-49.3c-0.9,0-1.7,0.2-2.5,0.5
		c-0.8,0.3-1.4,0.8-2,1.3s-1,1.2-1.3,2c-0.3,0.8-0.5,1.6-0.5,2.5v19.3c0,0.8,0.2,1.6,0.5,2.4c0.4,0.8,0.8,1.4,1.4,2
		c0.6,0.6,1.3,1.1,2,1.4c0.8,0.4,1.5,0.5,2.4,0.5h49.3v9.9h-49.3c-1.2,0-2.3-0.1-3.4-0.4c-1.1-0.2-2.2-0.6-3.2-1s-2-1-2.9-1.6
		s-1.8-1.3-2.5-2.1c-1.6-1.6-2.9-3.4-3.8-5.4c-0.9-2-1.3-4.2-1.3-6.6v-17.5c0-2.4,0.4-4.5,1.3-6.5S394.4,277.4,396.1,275.8z"/>
	<path d="M463.3,280.5v-9.9h66.2v9.9h-27.7v41.8H491v-41.8H463.3z"/>
	<path d="M536.8,316.4v-39.8c0-0.9,0.1-1.7,0.4-2.4c0.3-0.7,0.7-1.4,1.2-1.9c0.5-0.5,1.1-0.9,1.9-1.2c0.7-0.3,1.5-0.4,2.4-0.4h60.2
		v9.9h-55.3V291l0,0v9.9l0,0v11.6h55.3v9.9h-60.2c-0.9,0-1.7-0.1-2.4-0.4s-1.4-0.7-1.9-1.2c-0.5-0.5-0.9-1.1-1.2-1.9
		C536.9,318.1,536.8,317.3,536.8,316.4z"/>
	<path d="M615.3,275.8c1.6-1.6,3.5-2.9,5.5-3.8c2-0.9,4.2-1.3,6.5-1.3h49.3v9.9h-49.3c-0.9,0-1.7,0.2-2.5,0.5
		c-0.8,0.3-1.4,0.8-2,1.3s-1,1.2-1.3,2c-0.3,0.8-0.5,1.6-0.5,2.5v19.3c0,0.8,0.2,1.6,0.5,2.4c0.4,0.8,0.8,1.4,1.4,2
		c0.6,0.6,1.3,1.1,2,1.4c0.8,0.4,1.5,0.5,2.4,0.5h49.3v9.9h-49.3c-1.2,0-2.3-0.1-3.4-0.4s-2.2-0.6-3.2-1s-2-1-2.9-1.6
		c-0.9-0.6-1.8-1.3-2.5-2.1c-1.6-1.6-2.9-3.4-3.8-5.4c-0.9-2-1.3-4.2-1.3-6.6v-17.5c0-2.4,0.4-4.5,1.3-6.5
		C612.4,279.2,613.7,277.4,615.3,275.8z"/>
	<path d="M683.9,270.7h10.8V291h44.5v-20.3H750v51.7h-10.8v-21.5h-44.5v21.5h-10.8V270.7z"/>
</g>
<rect x="127.4" y="291.1" class="st0" width="9.8" height="9.8"/>
<rect x="361.2" y="291.4" transform="matrix(-1 -8.985891e-11 8.985891e-11 -1 732.207 592.6682)" class="st0" width="9.8" height="9.8"/>
<rect x="547.5" y="291" class="st0" width="9.8" height="9.8"/>
<rect x="562.1" y="291" class="st0" width="9.8" height="9.8"/>
</svg>
